# xmcd
#
# Track frame offsets:
#   150
#   15140
#   38630
#   62534
#   82563
#   102979
#   117411
#   132927
#   151701
#   168461
#   183594
#   202613
#
# Disc length: 3668 seconds
#
# Revision: 0
# Processed by: cddbd v1.5.2PL0 Copyright (c) Steve Scherf et al.
# Submitted via: GXTranscoder 2.0.1939
#
DISCID=7f0e520c
DTITLE=01 Tausend Jahre wie ein Tag - Hear, We Are
DYEAR=2005
DGENRE=Blues
TTITLE0=01_Tausend Jahre wie ein Tag
TTITLE1=02_Here we are
TTITLE2=03_Gerechtigkeitvor Gottes Angesicht
TTITLE3=04_Neues Wagen
TTITLE4=05_Träumt nicht euer Leben
TTITLE5=06_An sein Reich
TTITLE6=07_Er ist unsre Hoffnung
TTITLE7=08_Leben aus Gottes Kraft
TTITLE8=xy
TTITLE9=xy
TTITLE10=xy
TTITLE11=xy
EXTD=
EXTT0=
EXTT1=
EXTT2=
EXTT3=
EXTT4=
EXTT5=
EXTT6=
EXTT7=
EXTT8=
EXTT9=
EXTT10=
EXTT11=
PLAYORDER=
